<?xml version="1.0" encoding="utf-8"?>
<!-- Generator: Adobe Illustrator 27.8.0, SVG Export Plug-In . SVG Version: 6.00 Build 0)  -->
<svg version="1.1" id="Layer_1" xmlns="http://www.w3.org/2000/svg" xmlns:xlink="http://www.w3.org/1999/xlink" x="0px" y="0px"
	 viewBox="0 0 379.8 141.1" style="enable-background:new 0 0 379.8 141.1;" xml:space="preserve">
<style type="text/css">
	.st0{fill:#FFFFFF;}
	.st1{fill:#EAB426;}
	.st2{fill:#FDE33A;}
</style>
<g>
	<g>
		<path d="M379.8,19.8c0-3.1-1.5-5.5-3.7-6.7c0,0-22.7-12.3-22.7-12.3c-0.6-0.3-1.3-0.6-2-0.7c-0.3-0.1-0.7-0.1-1-0.1
			c-0.3,0-0.6,0-0.9,0.1L304,6.5c-0.7,0.1-1.5,0.3-2.1,0.7c-0.9,0.4-1.8,1.1-2.5,1.8c-0.5,0.5-0.9,1-1.3,1.5
			c-0.1,0.1-0.2,0.2-0.2,0.3c-0.1,0.1-0.2,0.3-0.3,0.4c0,0.1-0.1,0.2-0.1,0.2c-0.4,0.8-0.7,1.6-0.9,2.5c-0.2,0.9-0.2,1.8-0.2,2.7
			c0,0.3,0,0.5,0,0.8l-0.4,0.1c-0.3,0-0.7,0.1-1,0.2c-0.1,0-0.2,0.1-0.3,0.1c-0.2,0.1-0.3,0.1-0.5,0.2l-13.2-7.2
			c-0.9-0.4-1.9-0.6-2.8-0.6c-0.3,0-0.5,0-0.8,0l-37.6,5.3c-0.9,0.2-1.8,0.5-2.5,0.9c-0.7,0.4-1.4,0.9-2,1.5c-0.5,0.5-0.9,1-1.2,1.5
			c-0.1,0.2-0.3,0.4-0.4,0.6c-0.1,0.1-0.1,0.2-0.2,0.4c-0.3,0.6-0.6,1.3-0.8,1.9c0,0.1-0.1,0.3-0.1,0.4l-6.8-3.7
			c-0.7-0.5-1.6-0.8-2.4-1c-0.4-0.1-0.8-0.1-1.2-0.1c-0.7,0-1.3,0.1-2,0.2l-20.4,2.9c-1.4,0.2-2.7,0.8-3.8,1.7h0
			c-0.3,0.2-0.6,0.5-0.9,0.8c-0.1,0.1-0.2,0.3-0.4,0.4c0,0,0,0.1-0.1,0.1c0,0-0.1,0.1-0.1,0.1c0,0,0,0,0,0c0,0,0,0,0,0
			c0,0-0.1,0-0.1-0.1c0,0,0,0,0,0c0,0,0,0,0,0c-0.3-0.2-0.6-0.3-0.9-0.5c-0.6-0.3-1.2-0.6-1.8-0.8c-0.5-0.1-1.1-0.2-1.6-0.2
			c-0.3,0-0.6,0-0.9,0.1c0,0-53.4,7.5-53.4,7.5c-0.5,0.1-1.1,0.2-1.6,0.4c-1.2,0.4-2.2,1.1-3.1,2h0c-0.2,0.2-0.3,0.3-0.5,0.5
			c-0.1,0.2-0.3,0.3-0.4,0.5c-0.1,0.2-0.2,0.3-0.4,0.5c-0.3,0.4-0.5,0.8-0.7,1.2c-0.1,0.3-0.3,0.6-0.4,1c0,0-0.2,0.5-0.3,1l-7.4-4
			c-0.8-0.4-1.7-0.6-2.6-0.6c0,0,0,0,0,0c-0.7,0-1.5,0.1-2.2,0.2L79.8,38c-0.5,0.1-1.1,0.2-1.6,0.4c-0.4,0.1-0.8,0.3-1.1,0.5
			c-0.7,0.4-1.3,0.9-1.9,1.5h0c-0.2,0.2-0.5,0.5-0.7,0.7c-0.2,0.3-0.4,0.5-0.6,0.8c-0.7,1-1.2,2.2-1.4,3.4l-7.4-4
			c-1-0.5-2-0.7-3.1-0.7c-1.3,0-2.6,0.3-3.9,0.4L8.3,48c-2,0.2-3.8,1.2-5.3,2.6c-0.2,0.2-0.5,0.5-0.7,0.7c-0.2,0.3-0.4,0.5-0.6,0.8
			c-1.1,1.6-1.7,3.4-1.7,5.4c0,0,0,0.1,0,0.1L0,93.8c0,1.9,0.6,3.5,1.5,4.8c0.6,0.8,1.3,1.4,2.1,1.8l4.4,2.4c0,3.5,0,7,0,10.4
			c0,1.7-0.2,3.5,0.1,5.2c0.2,1.3,0.8,2.6,1.7,3.6c0.5,0.5,1.1,1,1.7,1.4l30.7,16.7c0.9,0.5,2,0.8,3.1,0.8c0.3,0,0.6,0,0.9-0.1
			l21.4-3c4.2-0.6,7.6-4.8,7.6-9.4l0-1.5l0.4-0.1c2.3-0.3,4.4-1.8,5.8-3.8l16.8,9.2c0.9,0.5,2,0.8,3.1,0.8c0.3,0,0.6,0,0.9-0.1
			l37.4-5.3c3.5-0.5,6.5-3.6,7.3-7.3l7.3,4c0.9,0.5,2,0.8,3.1,0.8c0.3,0,0.6,0,0.9-0.1l53.4-7.5c2-0.3,3.8-1.4,5.2-3l1.4,0.8
			c0.9,0.5,2,0.8,3.1,0.8c0.3,0,0.6,0,0.9-0.1l21.4-3c3.5-0.5,6.5-3.6,7.3-7.3l7.3,4c0.9,0.5,2,0.8,3.1,0.8c0.3,0,0.6,0,0.9-0.1
			l37.4-5.3c3.5-0.5,6.5-3.6,7.3-7.3l7.3,4c0.9,0.5,2,0.8,3.1,0.8c0.3,0,0.6,0,0.9-0.1l45.4-6.4c0,0,7.3-0.8,7.6-9.4l0-1.5l0.4-0.1
			c0,0,7.7-0.9,7.6-9.4l0-17.6c0-3.1-1.5-5.5-3.7-6.7l-9.2-5l5.4-0.8c0,0,7.5-0.7,7.6-9.4L379.8,19.8z"/>
	</g>
	<g>
		<g>
			<path class="st0" d="M341.5,43.3l29.1-4.1c0.7-0.1,1.3-0.9,1.3-1.8l0.2,0c0.7-0.1,1.3-0.9,1.3-1.8l0-16.5c0-0.9-0.6-1.6-1.3-1.5
				l-1.5,0.2c0,0,0,0,0,0l-44.5,6.3c-1.6,0.2-2.6-0.4-2.8-0.5l-24-14.7c-0.5,0.5-0.9,1-1.3,1.5l24.2,14.8l0,0
				c1.5,0.8,1.6,2.3,1.7,2.7l0,4.7c0,0.9-0.6,1.7-1.3,1.8l-5.3,0.8c-0.7,0.1-1.3,0.9-1.3,1.8l0,16.5c0,0,0,0,0,0.1l0,1.5
				c0,0.9,0.6,1.6,1.3,1.5l5.3-0.8c0.7-0.1,1.3,0.5,1.3,1.4l0,5.1c0,0,0,0,0,0.1l0,1.5c0,0.9,0.6,1.6,1.3,1.5l21.4-3c0,0,0,0,0,0
				c0.7-0.1,1.3,0.5,1.3,1.4l0,5.1c0,0.9-0.6,1.7-1.3,1.8l-29.4,4.1c-0.7,0.1-1.3,0.9-1.3,1.8l0,16.5c0,0,0,0,0,0.1l0,1.5
				c0,0.9,0.6,1.6,1.3,1.5l45.4-6.4c0.7-0.1,1.3-0.9,1.3-1.8l0.2,0c0.7-0.1,1.3-0.9,1.3-1.8l0-6.6c0,0,0,0,0-0.1l5.1-0.7
				c0.7-0.1,1.3-0.9,1.3-1.8l0.2,0c0.7-0.1,1.3-0.9,1.3-1.8l0-16.5c0-0.9-0.6-1.5-1.3-1.5c0,0,0,0-0.1,0l-1.5,0.2c0,0,0,0,0,0
				l-3.8,0.5c-0.7,0.1-1.3-0.6-1.3-1.5l0-6.6c0-0.9-0.6-1.6-1.3-1.5l-1.5,0.2c0,0,0,0,0,0l-19.8,2.8c-0.7,0.1-1.3-0.6-1.3-1.5
				L341.5,43.3C341.5,43.3,341.5,43.3,341.5,43.3z"/>
		</g>
		<g>
			<path class="st0" d="M308.2,36.5l-1.5,0.2c0,0,0,0,0,0l-3.8,0.5c-0.7,0.1-1.3-0.6-1.3-1.5l0-6.6c0-0.9-0.6-1.6-1.3-1.5l-1.5,0.2
				c0,0,0,0,0,0l-36.6,5.1c-1.5,0.1-2.6-0.4-2.7-0.5l-24-14.7c-0.5,0.5-0.9,1-1.2,1.5l24.2,14.8l0,0c1.5,0.8,1.6,2.3,1.7,2.7l0,4.7
				c0,0.9-0.6,1.7-1.3,1.8l-5.3,0.8c-0.7,0.1-1.3,0.9-1.3,1.8l-0.1,28l0,18.1c0,0,0,0,0,0.1l0,1.5c0,0.9,0.6,1.6,1.3,1.5l5.3-0.8
				c0.7-0.1,1.3,0.5,1.3,1.4l0,5.1c0,0,0,0,0,0.1l0,1.5c0,0.9,0.6,1.6,1.3,1.5l37.4-5.3c0.7-0.1,1.3-0.9,1.3-1.8l0.2,0
				c0.7-0.1,1.3-0.9,1.3-1.8l0-6.6c0,0,0,0,0-0.1l5.1-0.7c0.7-0.1,1.3-0.9,1.3-1.8l0.2,0c0.7-0.1,1.3-0.9,1.3-1.8l0-6.6
				c0-0.9-0.6-1.6-1.3-1.5l-1.5,0.2c0,0,0,0,0,0l-27.8,3.9c-0.7,0.1-1.3-0.6-1.3-1.5l0-6.6c0,0,0,0,0-0.1l29.1-4.1c0,0,0,0,0,0
				c0.7-0.1,1.3-0.9,1.3-1.8l0.2,0c0,0,0,0,0,0l0,0c0.7-0.1,1.3-0.9,1.3-1.8l0-26.4C309.5,37.1,308.9,36.4,308.2,36.5z M291.9,56.9
				c0,0.9-0.6,1.7-1.3,1.8l-6.7,0.9l-5.1,0.7c-0.7,0.1-1.3-0.6-1.3-1.5l0-6.6c0,0,0,0,0-0.1l6.4-0.9l6.7-0.9
				c0.7-0.1,1.3,0.5,1.3,1.4L291.9,56.9z"/>
		</g>
		<g>
			<path class="st0" d="M244.1,65.3l-1.5,0.2c0,0,0,0,0,0l-21.4,3c-0.7,0.1-1.3,0.9-1.3,1.8l0,8.2l-0.1,28c0,0,0,0,0,0.1l0,1.5
				c0,0.9,0.6,1.6,1.3,1.5l21.4-3c0.7-0.1,1.3-0.9,1.3-1.8l0.2,0c0.7-0.1,1.3-0.9,1.3-1.8l0.1-28l0-8.2
				C245.4,65.8,244.8,65.2,244.1,65.3z"/>
		</g>
		<g>
			<path class="st0" d="M244.1,35.7l-1.5,0.2c0,0,0,0,0,0l-20.5,2.9c-1.6,0.2-2.6-0.4-2.8-0.5l-23.2-15.5c-0.3,0.2-0.6,0.5-0.9,0.8
				c-0.1,0.1-0.2,0.3-0.4,0.4c0,0,0,0.1-0.1,0.1c0,0-0.1,0.1-0.1,0.1c0,0,0,0,0,0h0c0,0,0,0,0,0c0,0-0.1,0-0.1-0.1c0,0,0,0,0,0
				c0,0,0,0,0,0l23.7,15.9l0,0c1.4,0.8,1.6,2,1.6,2.4l0,14.9c0,0,0,0,0,0.1l0,1.5c0,0.9,0.6,1.6,1.3,1.5l21.4-3
				c0.7-0.1,1.3-0.9,1.3-1.8l0.2,0c0.7-0.1,1.3-0.9,1.3-1.8l0-16.5C245.4,36.2,244.9,35.5,244.1,35.7z"/>
		</g>
		<g>
			<path class="st0" d="M212.1,40.2l-1.5,0.2c0,0,0,0,0,0l-21.4,3c-0.7,0.1-1.3,0.9-1.3,1.8l0,16.5c0,0.9-0.6,1.7-1.3,1.8l-3.8,0.5
				c-0.7,0.1-1.3-0.6-1.3-1.5l0-16.5c0-0.9-0.6-1.6-1.3-1.5l-1.5,0.2c0,0,0,0,0,0l-20.1,2.8l0,0c-1.8,0.3-3-0.4-3.1-0.4l-24-14.7
				c-0.2,0.2-0.3,0.3-0.5,0.5c-0.1,0.2-0.3,0.3-0.4,0.5c-0.1,0.2-0.2,0.3-0.4,0.5l24.2,14.8l0,0c1.7,1,1.7,2.8,1.7,2.8l0,0l0,14.5
				c0,0,0,0,0,0.1l0,1.5c0,0.9,0.6,1.6,1.3,1.5l5.3-0.8c0.7-0.1,1.3,0.5,1.3,1.4l0,5.1c0,0,0,0,0,0.1l0,1.5c0,0.9,0.6,1.6,1.3,1.5
				l5.3-0.8c0.7-0.1,1.3,0.5,1.3,1.4l0,5.1c0,0.8-0.5,1.6-1.2,1.8c0,0-0.1,0-0.1,0l-5.3,0.8c-0.7,0.1-1.3,0.9-1.3,1.8l0,6.6
				c0,0.9-0.6,1.7-1.3,1.8l-5.3,0.8c-0.7,0.1-1.3,0.9-1.3,1.8l0,16.5c0,0,0,0,0,0.1l0,1.5c0,0.9,0.6,1.6,1.3,1.5l21.4-3
				c0.7-0.1,1.3-0.9,1.3-1.8l0.2,0c0.7-0.1,1.3-0.9,1.3-1.8l0-16.5c0,0,0,0,0-0.1l5.1-0.7c0.7-0.1,1.3,0.5,1.3,1.4l0,15
				c0,0,0,0,0,0.1l0,1.5c0,0.9,0.6,1.6,1.3,1.5l21.4-3c0.7-0.1,1.3-0.9,1.3-1.8l0.2,0c0.7-0.1,1.3-0.9,1.3-1.8l0-16.5
				c0-0.9-0.6-1.6-1.3-1.5l-1.5,0.2c0,0,0,0,0,0l-3.8,0.5c-0.7,0.1-1.3-0.6-1.3-1.5l0-6.6c0-0.9-0.6-1.6-1.3-1.5l-1.5,0.2
				c0,0,0,0,0,0l-3.8,0.5c0,0-0.1,0-0.1,0c-0.7,0-1.2-0.6-1.2-1.5l0-6.6c0,0,0,0,0-0.1l5.1-0.7c0.7-0.1,1.3-0.9,1.3-1.8l0.2,0
				c0.7-0.1,1.3-0.9,1.3-1.8l0-6.6c0,0,0,0,0-0.1l5.1-0.7c0.7-0.1,1.3-0.9,1.3-1.8l0.2,0c0.7-0.1,1.3-0.9,1.3-1.8l0-16.5
				C213.4,40.7,212.8,40.1,212.1,40.2z"/>
		</g>
		<g>
			<path class="st0" d="M148,59l-1.5,0.2c0,0,0,0,0,0l-3.8,0.5c-0.7,0.1-1.3-0.6-1.3-1.5l0-7.1c0-0.6-0.4-1-0.9-1l-1.5,0.2
				c0,0,0,0,0,0l-37,5.2c-1.6,0.2-2.7-0.4-2.8-0.5l-24-14.7c-0.2,0.2-0.5,0.5-0.7,0.7c-0.2,0.3-0.4,0.5-0.6,0.8L98,56.8l0,0
				c1.4,0.8,1.6,2.2,1.7,2.6l0,4.7c0,0.9-0.6,1.7-1.3,1.8L93,66.8c-0.7,0.1-1.3,0.9-1.3,1.8l-0.1,28l0,18.1c0,0,0,0,0,0.1l0,1.5
				c0,0.9,0.6,1.6,1.3,1.5l5.3-0.8c0.7-0.1,1.3,0.5,1.3,1.4l0,5.1c0,0,0,0,0,0.1l0,1.5c0,0.9,0.6,1.6,1.3,1.5l37.4-5.3
				c0.7-0.1,1.3-0.9,1.3-1.8l0.2,0c0.7-0.1,1.3-0.9,1.3-1.8l0-6.6c0,0,0,0,0-0.1l5.1-0.7c0.7-0.1,1.3-0.9,1.3-1.8l0.2,0
				c0.7-0.1,1.3-0.9,1.3-1.8l0-18.1l0.1-28C149.3,59.6,148.7,58.9,148,59z M124.2,92l0,8.3c0,0.9-0.6,1.7-1.3,1.8l-5,0.7
				c-0.7,0.1-1.3-0.6-1.3-1.5l0-8.3l0-18.1c0,0,0,0,0-0.1l6.3-0.9c0.7-0.1,1.3,0.5,1.3,1.4L124.2,92z"/>
		</g>
		<g>
			<path class="st0" d="M83.9,58.2l-1.5,0.2c0,0,0,0,0,0l-21.4,3c-0.7,0.1-1.3,0.9-1.3,1.8l-0.1,36.2c0,0.8-0.5,1.6-1.2,1.8
				c-0.1,0-0.1,0-0.2,0l-3.8,0.5c-0.1,0-0.1,0-0.2,0c-0.7,0-1.2-0.6-1.2-1.5l0.1-36.2c0-0.9-0.6-1.6-1.3-1.5l-1.5,0.2c0,0,0,0,0,0
				l-20.5,2.9c-1.6,0.2-2.7-0.4-2.8-0.5l-24-14.7c-0.2,0.2-0.5,0.5-0.7,0.7c-0.2,0.3-0.4,0.5-0.6,0.8l24.1,14.8l0,0
				c1.4,0.8,1.6,2.2,1.7,2.6L27.5,104c0,0,0,0,0,0l0,1.6c0,0.8,0.5,1.4,1.1,1.5c0.1,0,0.1,0,0.2,0l5.3-0.8c0.7-0.1,1.3,0.5,1.3,1.4
				l0,15c0,0,0,0,0,0.1l0,1.5c0,0.9,0.6,1.6,1.3,1.5l5.3-0.8c0.7-0.1,1.3,0.5,1.3,1.4l0,5.1c0,0,0,0,0,0.1l0,1.5
				c0,0.9,0.6,1.6,1.3,1.5l21.4-3c0.7-0.1,1.3-0.9,1.3-1.8l0.2,0c0.7-0.1,1.3-0.9,1.3-1.8l0-6.6c0,0,0,0,0-0.1l5.1-0.7
				c0.7-0.1,1.3-0.9,1.3-1.8l0.2,0c0.7-0.1,1.3-0.9,1.3-1.8l0-16.5c0,0,0,0,0-0.1l5.1-0.7c0.1,0,0.1,0,0.2,0h0
				c0.6-0.2,1.1-0.9,1.2-1.7l0.2,0c0.1,0,0.1,0,0.2,0h0c0.7-0.2,1.2-1,1.2-1.8l0.1-36.2C85.2,58.7,84.7,58.1,83.9,58.2z"/>
		</g>
	</g>
	<g>
		<path class="st1" d="M372.4,58.8l-24.1,3.4c0.7,0,1.2,0.6,1.2,1.5l0,6.6c0,0.9-0.6,1.7-1.3,1.8l-29.4,4.1
			c-0.7,0.1-1.3,0.9-1.3,1.8l0,16.5c0,0.9,0.6,1.6,1.3,1.5l45.4-6.4c0.7-0.1,1.3-0.9,1.3-1.8l0-6.6c0-0.9,0.6-1.7,1.3-1.8l5.3-0.8
			c0.7-0.1,1.3-0.9,1.3-1.8l0-16.5C373.5,59.4,373,58.8,372.4,58.8z"/>
		<path class="st1" d="M308.1,77.6l-29.4,4.1c-0.7,0.1-1.3-0.5-1.3-1.5l0-6.6c0-0.9,0.6-1.7,1.2-1.8l-25.3,3.5l0,18.1
			c0,0.9,0.6,1.6,1.3,1.5l5.3-0.8c0.7-0.1,1.3,0.5,1.3,1.5l0,6.6c0,0.9,0.6,1.6,1.3,1.5l37.4-5.3c0.7-0.1,1.3-0.9,1.3-1.8l0-6.6
			c0-0.9,0.6-1.7,1.3-1.8l5.3-0.8c0.7-0.1,1.3-0.9,1.3-1.8l0-6.6C309.4,78.2,308.8,77.5,308.1,77.6z"/>
		<path class="st1" d="M221.3,108c0,0.9,0.6,1.6,1.3,1.5l21.4-3c0.7-0.1,1.3-0.9,1.3-1.8l0.1-28l-24,3.4L221.3,108z"/>
		<path class="st1" d="M212,91.2l-5.3,0.8c-0.7,0.1-1.3-0.5-1.3-1.5l0-6.6c0-0.9-0.6-1.6-1.3-1.5l-32,4.5c0,0,0,0,0,0l-5.3,0.8
			c-0.7,0.1-1.3,0.9-1.3,1.8l0,6.6c0,0.9-0.6,1.7-1.3,1.8l-5.3,0.8c-0.7,0.1-1.3,0.9-1.3,1.8l0,16.5c0,0.9,0.6,1.6,1.3,1.5l21.4-3
			c0.7-0.1,1.3-0.9,1.3-1.8l0-16.5c0-0.9,0.6-1.7,1.3-1.8l5.3-0.8c0.7-0.1,1.3,0.6,1.3,1.5l0,16.5c0,0.9,0.6,1.6,1.3,1.5l21.4-3
			c0.7-0.1,1.3-0.9,1.3-1.8l0-16.5C213.3,91.7,212.7,91.1,212,91.2z"/>
		<path class="st1" d="M125.8,101.6c0,0.9-0.6,1.7-1.3,1.8l-6.5,0.9c-0.7,0.1-1.3-0.5-1.3-1.5l0-8.3L93.2,98l0,18.1
			c0,0.9,0.6,1.6,1.3,1.5l5.3-0.8c0.7-0.1,1.3,0.5,1.3,1.5l0,6.6c0,0.9,0.6,1.6,1.3,1.5l37.4-5.3c0.7-0.1,1.3-0.9,1.3-1.8l0-6.6
			c0-0.9,0.6-1.7,1.3-1.8l5.3-0.8c0.7-0.1,1.3-0.9,1.3-1.8l0-18.1l-23.5,3.3L125.8,101.6z"/>
		<path class="st1" d="M59.8,102.7l-5.3,0.8c-0.1,0-0.1,0-0.2,0l-24.1,3.4c0.1,0,0.1,0,0.2,0l5.3-0.8c0.7-0.1,1.3,0.6,1.3,1.5
			l0,16.5c0,0.9,0.6,1.6,1.3,1.5l5.3-0.8c0.7-0.1,1.3,0.5,1.3,1.5l0,6.6c0,0.9,0.6,1.6,1.3,1.5l21.4-3c0.7-0.1,1.3-0.9,1.3-1.8
			l0-6.6c0-0.9,0.6-1.7,1.3-1.8l5.3-0.8c0.7-0.1,1.3-0.9,1.3-1.8l0-16.5c0-0.9,0.6-1.7,1.3-1.8l5.3-0.8c0,0,0.1,0,0.1,0l-24,3.4
			C59.9,102.6,59.9,102.7,59.8,102.7z"/>
	</g>
	<g>
		<path class="st2" d="M372.3,19.2l-45.4,6.4c-0.7,0.1-1.3,0.9-1.3,1.8l0,6.6c0,0.9-0.6,1.7-1.3,1.8l-5.3,0.8
			c-0.7,0.1-1.3,0.9-1.3,1.8l0,16.5c0,0.9,0.6,1.6,1.3,1.5l5.3-0.8c0.7-0.1,1.3,0.5,1.3,1.5l0,6.6c0,0.9,0.6,1.6,1.3,1.5l21.4-3
			c0.1,0,0.1,0,0.2,0l24.1-3.4c-0.1,0-0.1,0-0.2,0l-5.3,0.8c-0.7,0.1-1.3-0.5-1.3-1.5l0-6.6c0-0.9-0.6-1.6-1.3-1.5l-21.4,3
			c-0.7,0.1-1.3-0.6-1.3-1.5l0-6.6c0-0.9,0.6-1.7,1.3-1.8l29.4-4.1c0.7-0.1,1.3-0.9,1.3-1.8l0-16.5C373.6,19.8,373,19.1,372.3,19.2z
			"/>
		<path class="st2" d="M308.2,38.1l-5.3,0.8c-0.7,0.1-1.3-0.5-1.3-1.5l0-6.6c0-0.9-0.6-1.6-1.3-1.5l-37.4,5.3
			c-0.7,0.1-1.3,0.9-1.3,1.8l0,6.6c0,0.9-0.6,1.7-1.3,1.8l-5.3,0.8c-0.7,0.1-1.3,0.9-1.3,1.8l-0.1,28l25.3-3.5c0,0,0.1,0,0.1,0
			l29.4-4.1c0.7-0.1,1.3-0.9,1.3-1.8l0-26.4C309.5,38.7,308.9,38,308.2,38.1z M293.5,58.3c0,0.9-0.6,1.7-1.3,1.8l-6.7,0.9l-6.7,0.9
			c-0.7,0.1-1.3-0.6-1.3-1.5l0-6.6c0-0.9,0.6-1.7,1.3-1.8l6.7-0.9l6.7-0.9c0.7-0.1,1.3,0.5,1.3,1.5L293.5,58.3z"/>
		<path class="st2" d="M244.1,66.9l-21.4,3c-0.7,0.1-1.3,0.9-1.3,1.8l0,8.2l24-3.4l0-8.2C245.4,67.4,244.8,66.8,244.1,66.9z"/>
		<path class="st2" d="M244.1,37.3l-21.4,3c-0.7,0.1-1.3,0.9-1.3,1.8l0,16.5c0,0.9,0.6,1.6,1.3,1.5l21.4-3c0.7-0.1,1.3-0.9,1.3-1.8
			l0-16.5C245.4,37.8,244.9,37.1,244.1,37.3z"/>
		<path class="st2" d="M212.1,41.8l-21.4,3c-0.7,0.1-1.3,0.9-1.3,1.8l0,16.5c0,0.9-0.6,1.7-1.3,1.8l-5.3,0.8
			c-0.7,0.1-1.3-0.6-1.3-1.5l0-16.5c0-0.9-0.6-1.6-1.3-1.5l-21.4,3c-0.7,0.1-1.3,0.9-1.3,1.8l0,16.5c0,0.9,0.6,1.6,1.3,1.5l5.3-0.8
			c0.7-0.1,1.3,0.5,1.3,1.5l0,6.6c0,0.9,0.6,1.6,1.3,1.5L172,77c0.7-0.1,1.3,0.5,1.3,1.5l0,6.6c0,0.9-0.6,1.7-1.3,1.8l32-4.5
			c0,0,0,0,0,0l-5.3,0.8c-0.7,0.1-1.3-0.5-1.3-1.5l0-6.6c0-0.9,0.6-1.7,1.3-1.8l5.3-0.8c0.7-0.1,1.3-0.9,1.3-1.8l0-6.6
			c0-0.9,0.6-1.7,1.3-1.8l5.3-0.8c0.7-0.1,1.3-0.9,1.3-1.8l0-16.5C213.4,42.3,212.8,41.7,212.1,41.8z"/>
		<path class="st2" d="M148,60.6l-5.3,0.8c-0.7,0.1-1.3-0.5-1.3-1.5l0-7.1c0-0.6-0.4-1-0.9-1l-37.8,5.3c-0.7,0.1-1.3,0.9-1.3,1.8
			l0,6.6c0,0.9-0.6,1.7-1.3,1.8l-5.3,0.8c-0.7,0.1-1.3,0.9-1.3,1.8l-0.1,28l23.4-3.3l0-18.1c0-0.9,0.6-1.7,1.3-1.8l6.5-0.9
			c0.7-0.1,1.3,0.5,1.3,1.5l0,18.1l23.5-3.3l0.1-28C149.3,61.2,148.7,60.5,148,60.6z"/>
		<path class="st2" d="M53.1,102l0.1-36.2c0-0.9-0.6-1.6-1.3-1.5l-21.4,3c-0.7,0.1-1.3,0.9-1.3,1.8l-0.1,36.2c0,0.8,0.5,1.4,1.1,1.5
			l24.1-3.4C53.6,103.4,53.1,102.8,53.1,102z"/>
		<path class="st2" d="M83.9,59.8l-21.4,3c-0.7,0.1-1.3,0.9-1.3,1.8l-0.1,36.2c0,0.8-0.5,1.6-1.2,1.8l24-3.4
			c0.7-0.2,1.2-0.9,1.2-1.8l0.1-36.2C85.2,60.3,84.7,59.7,83.9,59.8z"/>
	</g>
</g>
</svg>
